<svg viewBox="0 0 100 100" xmlns="http://www.w3.org/2000/svg">
<path d="M86.0406 57.4833C86.1625 57.4792 86.3063 57.475 86.4531 57.475C89.0594 57.475 91.525 58.2833 93.7125 59.725L93.6156 59.6667C95.6094 60.9625 97.2469 62.8792 98.4313 65.2292L98.4594 65.2875C99.3938 67.1042 99.95 69.35 99.95 71.7667C99.95 71.9417 99.9469 72.1167 99.9406 72.2875V72.2625C99.8438 74.675 99.0219 76.8042 97.7594 78.2958L97.7531 78.3042C97.0625 79.2083 96.2281 79.9167 95.3 80.3667L95.2531 80.3875C94.7323 80.5264 94.4458 80.4222 94.3938 80.075C94.3417 79.7278 94.576 79.3458 95.0969 78.9292C96.5094 77.7875 97.5313 75.9458 97.9031 73.775L97.9125 73.7208C97.9219 73.5458 97.9281 73.3417 97.9281 73.1333C97.9281 71.8375 97.6969 70.6125 97.2875 69.5292L97.3031 69.575C96.625 67.6875 95.6125 66.1375 94.3656 65.0167L94.3344 64.9917C92.4688 63.3917 90.2313 62.3417 87.825 62.0792L87.775 62.075C86.9563 61.9125 86.0125 61.8208 85.05 61.8208C82.5469 61.8208 80.1563 62.45 77.9563 63.5958L78.0875 63.5333C78.5406 64.9458 78.825 66.5833 78.8656 68.3V68.3208C78.8156 71.8417 77.3969 74.9042 75.2875 76.6125L75.2531 76.6375C74.2844 77.5542 73.1781 78.3583 72 78.9833L71.8906 79.0333C71.175 79.5 70.3344 79.7708 69.4469 79.7708C69.3438 79.7708 69.2438 79.7667 69.1438 79.7583H69.1594C67.1823 79.2056 66.7136 76.9139 67.7531 72.8833C68.2063 71.1292 68.8406 69.6083 69.6438 68.2708L69.625 68.3C70.6531 66.5083 71.7813 64.9375 73.0281 63.5458L73.0625 63.5083L72.7563 62.9C72.1844 61.6 71.6594 60.0875 71.2375 58.5083L71.1938 58.3167C70.8813 56.9278 70.6208 55.6097 70.4125 54.3625L70.2563 52.9042L68.6938 56.8583C67.3396 60.1917 66.0375 63.1069 64.7875 65.6042L64.3188 66.6458C64.8438 68.3458 65.2313 70.3167 65.4063 72.375L65.4125 72.4792C65.425 72.675 65.4313 72.9083 65.4313 73.1417C65.4313 76.3 64.2625 79.0917 62.4688 80.7958L62.4469 80.8167C61.5906 81.5208 60.5688 82.25 59.5094 82.9L59.3219 83.0042C58.2188 83.6417 56.9406 84.0583 55.6 84.15H55.5719C55.4688 84.1583 55.3469 84.1667 55.225 84.1667C54.4438 84.1667 53.7031 83.9292 53.0406 83.5083L53.0719 83.525C52.675 83.0708 52.425 82.4042 52.425 81.6583C52.425 81.2792 52.4906 80.9167 52.6063 80.5958L52.6 80.6125C53.85 78.275 55.0813 76.2417 56.3906 74.3L56.35 74.3625L59.7875 68.5333L59.1656 66.6583C58.6656 65.4333 58.1875 63.9875 57.8031 62.4875L57.7594 62.2875C57.4469 60.8986 57.1865 59.5806 56.9781 58.3333L56.8219 56.875L55.2594 61.875C54.0115 65.7611 52.8656 69.0931 51.8219 71.8708C50.2656 76.0375 48.9636 79.2319 47.9156 81.4542L47.6031 82.0792C46.3552 84.7153 45.1573 86.0333 44.0094 86.0333C42.8615 86.0333 42.0833 85.0611 41.675 83.1167C41.375 81.6833 41.2 80.0375 41.2 78.3375C41.2 78.1875 41.2 78.0375 41.2031 77.8875V77.9083L41.5156 74.9917V75.2C40.6823 77.8361 39.849 80.2653 39.0156 82.4875C38.4625 83.9292 37.8938 85.1583 37.2563 86.3167L37.2969 86.2375C36.6531 87.1375 35.7469 87.6958 34.7438 87.6958C34.7344 87.6958 34.7281 87.6958 34.7188 87.6958C34.6531 87.7042 34.5781 87.7042 34.5031 87.7042C33.7125 87.7042 32.9938 87.3042 32.45 86.65L32.4531 86.6542C31.3625 85.1625 30.5531 83.3 30.1344 81.2208L30.1188 81.1333C29.6063 79.2375 29.3125 77.0458 29.3125 74.7625C29.3125 74.4667 29.3188 74.175 29.3281 73.8875V73.9292C29.575 70.6125 30.0719 67.575 30.8 64.6792L30.7344 64.975L25.1125 69.35V69.5583C25.9281 71.8167 26.4063 74.4667 26.4063 77.2667C26.4063 77.7792 26.3906 78.2875 26.3594 78.7875L26.3625 78.7208C26.1969 83.0125 25.1688 86.9417 23.5094 90.2625L23.55 90.1792C21.8094 93.8625 19.3 96.7083 16.3188 98.3542L16.2156 98.4042C14.5375 99.4083 12.575 99.9958 10.5125 99.9958C9.20626 99.9958 7.93751 99.7625 6.73751 99.3208L6.83751 99.35C5.84376 98.9042 5.03126 98.0208 4.51564 96.8792L4.50626 96.8542C3.77814 95.4458 3.31876 93.725 3.24689 91.8708V91.8458C3.21251 91.425 3.19376 90.9375 3.19376 90.4417C3.19376 88.3042 3.55939 86.2792 4.21251 84.475L4.18439 84.5583C5.97814 80.4792 8.45939 77.175 11.4219 74.85L11.5156 74.7833C13.6125 72.8458 16.0219 70.9667 18.5375 69.3292L18.8688 69.1333L19.65 68.5083C18.7125 67.5361 16.9938 65.8694 14.4938 63.5083C11.1531 60.525 8.25001 57.5125 5.51251 54.2542L5.59064 54.3458C2.94376 51.3083 1.01564 47.25 0.150012 42.6292L0.125012 42.4708C0.0437622 41.8292 -0.00311279 41.0917 -0.00311279 40.3417C-0.00311279 37.9917 0.450012 35.7833 1.24376 33.8625L1.21876 33.9333C2.96876 28.9167 5.39376 24.6875 8.36876 21.2875L8.40626 21.2458C11.625 17.1917 15.2688 13.6625 19.225 10.8042L19.4969 10.625C23.0313 7.90417 27.1594 5.375 31.4625 3.34583L31.9938 3.12917C35.9906 1.17917 40.6063 0.0375 45.4188 0.0166667H45.425C45.6438 0.00833333 45.9031 0 46.1625 0C50.0406 0 53.7094 1.19583 56.9719 3.325L56.8281 3.2375C59.6406 4.94583 61.7469 8.1625 62.5906 12.0958L62.6094 12.1958C62.8688 13.5375 63.0156 15.0792 63.0156 16.6667C63.0156 19.3 62.6063 21.8083 61.8719 24.0833L61.9063 23.9625C60.5688 28.2833 58.6656 31.9625 56.2906 34.9917L56.2813 35.0042C53.875 38.1833 50.9906 40.725 47.7875 42.4208L47.6156 42.5C44.2594 44.4208 40.3625 45.6292 36.2719 45.8292L36.2125 45.8333C35.6125 45.925 34.9188 45.975 34.2156 45.975C32.3656 45.975 30.5813 45.6208 28.8938 44.9583L29.0281 45.0042C27.5188 44.3625 26.2156 43.3667 25.1094 42.075L25.1219 42.0875C24.3469 41.2458 23.7156 40.2083 23.2656 39.0292L23.2469 38.975C22.9344 37.8639 22.9083 37.2042 23.1688 36.9958C23.4292 36.7875 23.6115 36.7528 23.7156 36.8917L24.4969 37.9333C25.3688 39.0125 26.4094 39.8625 27.5594 40.4042L27.6219 40.4292C29.2031 41.1625 31.0281 41.5875 32.925 41.5875C33.5344 41.5875 34.1344 41.5458 34.725 41.4583L34.6531 41.4667C39.7094 40.6708 44.2688 38.3708 48.2031 34.9125L48.0875 35.0083C51.4125 32.3708 54.1031 28.7458 55.9969 24.425L56.0531 24.2833C56.9938 22.4417 57.5563 20.1667 57.5563 17.7167C57.5563 16.2125 57.3438 14.7708 56.9563 13.4458L56.9781 13.525C55.8094 11.0625 53.9188 9.32917 51.7125 8.85L51.6688 8.84167C49.9563 8.27917 47.9875 7.95417 45.9656 7.95417C44.3375 7.95417 42.7438 8.1625 41.2031 8.5625L41.3594 8.52917C36.0875 9.79583 31.375 11.9667 27.0281 14.95L27.3125 14.7708C14.5042 23.3819 7.89064 32.2 7.47189 41.225V41.4292C7.47189 45.0667 8.54376 48.3708 10.2906 50.8125L10.2875 50.8083C12.2781 53.7583 14.4781 56.3625 16.8813 58.6125L17.0031 58.7208C19.1938 60.9042 21.1313 63.1583 22.9344 65.5917L22.9375 65.6L23.25 66.0167L33.25 58.7292C34.3906 56.5292 35.7625 54.6708 37.3375 53.1708L37.3875 53.125C38.6375 51.725 40.225 50.8125 41.9656 50.6292L41.9938 50.625C42.0563 50.6167 42.1281 50.6167 42.2031 50.6167C43.3688 50.6167 44.3688 51.5542 44.8 52.8958L44.8063 52.9208C45.1344 53.9 45.325 55.0458 45.325 56.25C45.325 56.6167 45.3063 56.9792 45.2719 57.3375L45.275 57.2958L44.9719 59.35L45.4406 58.9333C45.7656 58.6042 46.175 58.4083 46.6188 58.4083C46.9 58.4083 47.1656 58.4875 47.4063 58.6292L47.3938 58.6208C47.9938 58.8292 48.4281 59.5458 48.4281 60.3958C48.4281 60.5417 48.4156 60.6833 48.3906 60.8208L48.3938 60.8083L47.925 63.1C46.9875 68.0972 46.3636 71.7069 46.0531 73.9292C45.8969 74.65 45.8094 75.4792 45.8094 76.3375C45.8094 76.5167 45.8125 76.6917 45.8219 76.8667V76.8417C45.874 77.675 45.9521 78.0917 46.0563 78.0917C46.1604 78.0917 46.3677 77.675 46.6781 76.8417L47.1469 75.3833C47.2511 75.3833 47.2511 75.4528 47.1469 75.5917L48.8656 70.8C52.9281 58.8611 55.1146 52.1944 55.425 50.8L56.3625 46.8458C56.4667 46.5681 56.8833 46.2917 57.6125 46.0167C58.3531 45.75 59.2 45.5958 60.075 45.5958C60.1469 45.5958 60.2188 45.5958 60.2875 45.6H60.2781C61.7365 45.6 62.4656 46.0861 62.4656 47.0583L62.3094 48.1C61.9594 49.3833 61.6125 50.9875 61.3438 52.6292L61.3094 52.8917C61.2469 53.4292 61.2094 54.0458 61.2094 54.6792C61.2094 55.5208 61.2719 56.3417 61.3938 57.1375L61.3844 57.0583L61.5406 57.8875C61.8594 59.625 62.3438 61.15 62.9781 62.5417L62.9469 62.4708C64.1948 59.6958 65.3927 56.85 66.5406 53.9333C67.4469 51.9208 68.2906 49.5875 68.9688 47.1458L69.0406 46.8542C69.275 45.2833 69.5438 43.9583 69.8719 42.6667L69.8219 42.9C69.9261 42.4833 70.3708 42.1708 71.1563 41.9625C71.9 41.7625 72.7531 41.65 73.625 41.65H73.7375H73.7313C75.1896 41.65 75.9677 42.1361 76.0656 43.1083L75.7531 43.9375C75.3813 45.3375 75.0563 47.0208 74.8375 48.75L74.8188 48.9375C74.7906 49.3417 74.7719 49.8083 74.7719 50.2833C74.7719 51.2792 74.8469 52.2542 74.9875 53.1958L74.975 53.1V53.9292C75.3344 55.7458 75.8688 57.3417 76.5688 58.7875L76.5375 58.7208L77.0063 60.1792C79.6156 58.4708 82.6844 57.4708 85.9281 57.4708H86.05H86.0438L86.0406 57.4833ZM19.0438 87.7042C21.2156 84.7125 22.5563 80.6292 22.5563 76.1292C22.5563 74.3917 22.3563 72.7167 21.9875 71.1417L22.0125 71.2583L19.5125 73.3417C16.9625 75.2792 14.7563 77.4417 12.7594 79.9L12.7844 79.8708C11.2688 81.7292 10.15 84.1333 9.60001 86.8458L9.58126 86.95C9.11251 89.5194 9.34689 91.1861 10.2844 91.95C10.8563 92.3 11.5281 92.5042 12.2313 92.5042C13 92.5042 13.7281 92.2625 14.3688 91.8292L14.3406 91.8458C16.1969 90.9458 17.7688 89.5167 19.0188 87.6875L19.0281 87.675L19.0438 87.7042ZM39.9719 68.5208C40.4927 66.7153 41.0656 64.5625 41.6906 62.0625C42.524 58.7292 42.8104 56.7861 42.55 56.2333C42.2896 55.6806 41.7948 55.6111 41.0656 56.025C40.1969 56.5875 39.4688 57.3583 38.8875 58.3042L38.8781 58.3208C38.2281 59.4167 37.6094 60.6417 37.0594 61.9292L37.0031 62.0708C36.3719 63.45 35.8375 65.0375 35.4656 66.7208L35.4375 66.8625C34.8344 69.0417 34.4844 71.5625 34.4844 74.1875C34.4844 74.5417 34.4906 74.8917 34.5031 75.2417V75.1917C34.6073 77.9667 34.9406 79.4597 35.5031 79.6708C36.0656 79.8819 36.7167 78.875 37.4563 76.65C38.1719 74.9292 38.8094 72.9292 39.2844 70.8333L39.3281 70.6083C39.6386 69.625 39.8511 68.9292 39.9656 68.5208H39.9719ZM57.3031 79.5625C59.4688 78.2667 60.9938 75.5375 61.2063 72.3083L61.2094 72.275V72.0667L59.4906 74.9833L56.3688 79.5667C56.3219 79.6167 56.2906 79.6917 56.2906 79.775C56.2906 79.8583 56.3219 79.9333 56.3656 79.9833C56.4656 80.1194 56.7781 79.9806 57.3031 79.5667V79.5625ZM70.7375 75.6042C73.1 74.7042 74.8 71.85 74.8 68.4708C74.8 68.4167 74.8 68.3625 74.8 68.3083V68.3167C74.7688 67.4833 74.6563 66.7 74.4719 65.9583L74.4844 66.0208C73.2688 67.4625 72.2719 69.1875 71.55 71.1333L71.5156 71.2292C70.576 73.7264 70.3136 75.1819 70.7281 75.5958L70.7375 75.6042Z" fill="black"/>
</svg>
