<svg width="23" height="29" viewBox="0 0 23 29" fill="none" xmlns="http://www.w3.org/2000/svg">
<path fill-rule="evenodd" clip-rule="evenodd" d="M6.27222 14.5C6.27222 14.7747 6.38235 15.0381 6.5784 15.2324C6.77444 15.4266 7.04034 15.5357 7.31759 15.5357H19.4292L14.9404 19.981C14.7441 20.1755 14.6339 20.4392 14.6339 20.7143C14.6339 20.9893 14.7441 21.2531 14.9404 21.4476C15.1367 21.642 15.4029 21.7513 15.6805 21.7513C15.9581 21.7513 16.2244 21.642 16.4207 21.4476L22.6929 15.2333C22.7902 15.1371 22.8675 15.0228 22.9202 14.897C22.9729 14.7711 23 14.6362 23 14.5C23 14.3638 22.9729 14.2289 22.9202 14.103C22.8675 13.9772 22.7902 13.8629 22.6929 13.7667L16.4207 7.55243C16.2244 7.35795 15.9581 7.24869 15.6805 7.24869C15.4029 7.24869 15.1367 7.35795 14.9404 7.55243C14.7441 7.74691 14.6339 8.01068 14.6339 8.28571C14.6339 8.56075 14.7441 8.82452 14.9404 9.019L19.4292 13.4643H7.31759C7.04034 13.4643 6.77444 13.5734 6.5784 13.7676C6.38235 13.9619 6.27222 14.2253 6.27222 14.5ZM1.04537 29C0.76812 29 0.502227 28.8909 0.306182 28.6966C0.110137 28.5024 0 28.239 0 27.9643V1.03571C0 0.761026 0.110137 0.497588 0.306182 0.303354C0.502227 0.10912 0.76812 0 1.04537 0C1.32262 0 1.58851 0.10912 1.78456 0.303354C1.9806 0.497588 2.09074 0.761026 2.09074 1.03571V27.9643C2.09074 28.239 1.9806 28.5024 1.78456 28.6966C1.58851 28.8909 1.32262 29 1.04537 29Z" fill="black"/>
</svg>
